<svg xmlns="http://www.w3.org/2000/svg">
  <symbol id="icon-calculator" viewBox="0 0 20 20">
    <path d="M17.0312 0H2.96875C1.99949 0 1.21094 0.788555 1.21094 1.75781V18.2422C1.21094 19.2114 1.99949 20 2.96875 20H17.0312C18.0005 20 18.7891 19.2114 18.7891 18.2422V1.75781C18.7891 0.788555 18.0005 0 17.0312 0ZM17.6172 18.2422C17.6172 18.5653 17.3543 18.8281 17.0312 18.8281H2.96875C2.64566 18.8281 2.38281 18.5653 2.38281 18.2422V1.75781C2.38281 1.43473 2.64566 1.17188 2.96875 1.17188H17.0312C17.3543 1.17188 17.6172 1.43473 17.6172 1.75781V18.2422Z" fill="#52555F"/>
    <path d="M15.8594 2.34375H4.14062C3.81703 2.34375 3.55469 2.60609 3.55469 2.92969V7.69531C3.55469 8.01891 3.81703 8.28125 4.14062 8.28125H15.8594C16.183 8.28125 16.4453 8.01891 16.4453 7.69531V2.92969C16.4453 2.60609 16.183 2.34375 15.8594 2.34375ZM15.2734 7.10938H4.72656V3.51562H15.2734V7.10938Z" fill="#52555F"/>
    <path d="M6.48438 9.45312H4.14062C3.81703 9.45312 3.55469 9.71547 3.55469 10.0391V12.3828C3.55469 12.7064 3.81703 12.9688 4.14062 12.9688H6.48438C6.80797 12.9688 7.07031 12.7064 7.07031 12.3828V10.0391C7.07031 9.71547 6.80797 9.45312 6.48438 9.45312ZM5.89844 11.7969H4.72656V10.625H5.89844V11.7969Z" fill="#52555F"/>
    <path d="M6.48438 14.1406H4.14062C3.81703 14.1406 3.55469 14.403 3.55469 14.7266V17.0703C3.55469 17.3939 3.81703 17.6562 4.14062 17.6562H6.48438C6.80797 17.6562 7.07031 17.3939 7.07031 17.0703V14.7266C7.07031 14.403 6.80797 14.1406 6.48438 14.1406ZM5.89844 16.4844H4.72656V15.3125H5.89844V16.4844Z" fill="#52555F"/>
    <path d="M11.1719 9.45312H8.82812C8.50453 9.45312 8.24219 9.71547 8.24219 10.0391V12.3828C8.24219 12.7064 8.50453 12.9688 8.82812 12.9688H11.1719C11.4955 12.9688 11.7578 12.7064 11.7578 12.3828V10.0391C11.7578 9.71547 11.4955 9.45312 11.1719 9.45312ZM10.5859 11.7969H9.41406V10.625H10.5859V11.7969Z" fill="#52555F"/>
    <path d="M11.1719 14.1406H8.82812C8.50453 14.1406 8.24219 14.403 8.24219 14.7266V17.0703C8.24219 17.3939 8.50453 17.6562 8.82812 17.6562H11.1719C11.4955 17.6562 11.7578 17.3939 11.7578 17.0703V14.7266C11.7578 14.403 11.4955 14.1406 11.1719 14.1406ZM10.5859 16.4844H9.41406V15.3125H10.5859V16.4844Z" fill="#52555F"/>
    <path d="M15.8594 9.45312H13.5156C13.192 9.45312 12.9297 9.71547 12.9297 10.0391V17.0703C12.9297 17.3939 13.192 17.6562 13.5156 17.6562H15.8594C16.183 17.6562 16.4453 17.3939 16.4453 17.0703V10.0391C16.4453 9.71547 16.183 9.45312 15.8594 9.45312ZM15.2734 16.4844H14.1016V10.625H15.2734V16.4844Z" fill="#52555F"/>
  </symbol>

  <symbol id="icon-date" viewBox="0 0 20 20">
    <path d="M17.4754 2.0669H16.1634V1.74585C16.1634 1.42226 15.9011 1.15991 15.5775 1.15991C15.2539 1.15991 14.9916 1.42226 14.9916 1.74585V2.0669H13.3747V1.74585C13.3747 1.42226 13.1123 1.15991 12.7887 1.15991C12.4652 1.15991 12.2028 1.42226 12.2028 1.74585V2.0669H10.5859V1.74585C10.5859 1.42226 10.3236 1.15991 10 1.15991C9.67641 1.15991 9.41406 1.42226 9.41406 1.74585V2.0669H7.79719V1.74585C7.79719 1.42226 7.53484 1.15991 7.21125 1.15991C6.88766 1.15991 6.62531 1.42226 6.62531 1.74585V2.0669H5.00844V1.74585C5.00844 1.42226 4.74609 1.15991 4.4225 1.15991C4.09891 1.15991 3.83656 1.42226 3.83656 1.74585V2.0669H2.52461C1.13254 2.0669 0 3.19944 0 4.59147V16.3155C0 17.7076 1.13254 18.8401 2.52461 18.8401H17.4754C18.8675 18.8401 20 17.7075 20 16.3155V4.59147C20 3.19944 18.8675 2.0669 17.4754 2.0669ZM18.8281 16.3155C18.8281 17.0614 18.2213 17.6682 17.4754 17.6682H2.52461C1.77871 17.6682 1.17188 17.0614 1.17188 16.3155V6.73233H18.8281V16.3155ZM18.8281 5.56046H1.17188V4.59147C1.17188 3.84562 1.77871 3.23878 2.52461 3.23878H3.83656V3.4653C3.83656 3.7889 4.09891 4.05124 4.4225 4.05124C4.74609 4.05124 5.00844 3.7889 5.00844 3.4653V3.23878H6.62531V3.4653C6.62531 3.7889 6.88766 4.05124 7.21125 4.05124C7.53484 4.05124 7.79719 3.7889 7.79719 3.4653V3.23878H9.41406V3.4653C9.41406 3.7889 9.67641 4.05124 10 4.05124C10.3236 4.05124 10.5859 3.7889 10.5859 3.4653V3.23878H12.2028V3.4653C12.2028 3.7889 12.4652 4.05124 12.7887 4.05124C13.1123 4.05124 13.3747 3.7889 13.3747 3.4653V3.23878H14.9916V3.4653C14.9916 3.7889 15.2539 4.05124 15.5775 4.05124C15.9011 4.05124 16.1634 3.7889 16.1634 3.4653V3.23878H17.4754C18.2213 3.23878 18.8281 3.84562 18.8281 4.59147V5.56046Z" fill="#52555F"/>
    <path d="M6.5318 7.98157H4.21973C3.89613 7.98157 3.63379 8.24391 3.63379 8.5675V10.9596C3.63379 11.2832 3.89613 11.5456 4.21973 11.5456H6.5318C6.85539 11.5456 7.11773 11.2832 7.11773 10.9596V8.5675C7.11773 8.24391 6.85543 7.98157 6.5318 7.98157ZM5.94586 10.3737H4.80566V9.15344H5.94586V10.3737Z" fill="#52555F"/>
    <path d="M11.1561 7.98157H8.84399C8.5204 7.98157 8.25806 8.24391 8.25806 8.5675V10.9596C8.25806 11.2832 8.5204 11.5456 8.84399 11.5456H11.1561C11.4797 11.5456 11.742 11.2832 11.742 10.9596V8.5675C11.742 8.24391 11.4797 7.98157 11.1561 7.98157ZM10.5701 10.3737H9.42993V9.15344H10.5701V10.3737Z" fill="#52555F"/>
    <path d="M15.7802 7.98157H13.4681C13.1445 7.98157 12.8822 8.24391 12.8822 8.5675V10.9596C12.8822 11.2832 13.1445 11.5456 13.4681 11.5456H15.7802C16.1038 11.5456 16.3661 11.2832 16.3661 10.9596V8.5675C16.3661 8.24391 16.1038 7.98157 15.7802 7.98157ZM15.1943 10.3737H14.0541V9.15344H15.1943V10.3737Z" fill="#52555F"/>
    <path d="M6.5318 12.5258H4.21973C3.89613 12.5258 3.63379 12.7881 3.63379 13.1117V15.5038C3.63379 15.8274 3.89613 16.0898 4.21973 16.0898H6.5318C6.85539 16.0898 7.11773 15.8274 7.11773 15.5038V13.1117C7.11773 12.7881 6.85543 12.5258 6.5318 12.5258ZM5.94586 14.9179H4.80566V13.6977H5.94586V14.9179Z" fill="#52555F"/>
    <path d="M11.1561 12.5258H8.84399C8.5204 12.5258 8.25806 12.7881 8.25806 13.1117V15.5038C8.25806 15.8274 8.5204 16.0898 8.84399 16.0898H11.1561C11.4797 16.0898 11.742 15.8274 11.742 15.5038V13.1117C11.742 12.7881 11.4797 12.5258 11.1561 12.5258ZM10.5701 14.9179H9.42993V13.6977H10.5701V14.9179Z" fill="#52555F"/>
  </symbol>

  <symbol id="icon-chart" viewBox="0 0 20 20">
    <path d="M0 4.2H3V14H0V4.2ZM5.6 0H8.4V14H5.6V0ZM11.2 8H14V14H11.2V8Z" fill="#52555F"/>
  </symbol>

  <symbol id="icon-delete" viewBox="0 0 20 20">
    <path d="M16.3081 4.02333L15.9106 2.832C15.7593 2.37827 15.3362 2.07339 14.858 2.07339H11.5177V0.985886C11.5177 0.442337 11.0758 0 10.5324 0H7.47355C6.93027 0 6.48821 0.442337 6.48821 0.985886V2.07339H3.14809C2.66977 2.07339 2.24666 2.37827 2.09533 2.832L1.6979 4.02333C1.6074 4.29456 1.65326 4.59489 1.82039 4.82684C1.98752 5.05879 2.25792 5.19736 2.54384 5.19736H2.95926L3.8736 16.5038C3.94158 17.3427 4.65349 18 5.49463 18H12.6969C13.5379 18 14.2499 17.3427 14.3178 16.5037L15.2321 5.19736H15.4621C15.748 5.19736 16.0184 5.05879 16.1856 4.82698C16.3527 4.59503 16.3986 4.29456 16.3081 4.02333ZM7.5429 1.05469H10.4631V2.07339H7.5429V1.05469ZM13.2665 16.4187C13.2426 16.7141 12.9924 16.9453 12.6969 16.9453H5.49463C5.1991 16.9453 4.94889 16.7141 4.92499 16.4187L4.01738 5.19736H14.174L13.2665 16.4187ZM2.77002 4.14267L3.09591 3.16571C3.10332 3.14319 3.12433 3.12808 3.14809 3.12808H14.858C14.8818 3.12808 14.9026 3.14319 14.9102 3.16571L15.2361 4.14267H2.77002Z" fill="#52555F"/>
    <path d="M11.5846 16.3813C11.5939 16.3818 11.6031 16.3819 11.6125 16.3819C11.8911 16.3819 12.124 16.1636 12.1386 15.8821L12.6338 6.37587C12.6489 6.085 12.4253 5.83685 12.1346 5.82174C11.843 5.80623 11.5957 6.03007 11.5805 6.32094L11.0854 15.8271C11.0703 16.118 11.2937 16.3661 11.5846 16.3813Z" fill="#52555F"/>
    <path d="M5.89099 15.8833C5.90637 16.1644 6.139 16.382 6.41709 16.382C6.4267 16.382 6.43659 16.3817 6.44634 16.3811C6.73707 16.3653 6.95995 16.1168 6.94416 15.8259L6.42547 6.31973C6.40968 6.02886 6.16111 5.80598 5.87025 5.82191C5.57952 5.8377 5.35664 6.08627 5.37243 6.37713L5.89099 15.8833Z" fill="#52555F"/>
    <path d="M9.00891 16.382C9.30019 16.382 9.53625 16.1459 9.53625 15.8546V6.34845C9.53625 6.05717 9.30019 5.82111 9.00891 5.82111C8.71764 5.82111 8.48157 6.05717 8.48157 6.34845V15.8546C8.48157 16.1459 8.71764 16.382 9.00891 16.382Z" fill="#52555F"/>
  </symbol>
</svg>
